<svg xmlns="http://www.w3.org/2000/svg" viewBox="0 0 360 360" class="link-icon link-icon-email">
  <title>Link - Email</title>
  <path class="color-base" fill="#fff" d="M0,0V360H360V0ZM333,333H27V27H333Z"/>
  <path class="color-highlight" fill="#afc6e9" d="M75.38,105.75A3.19,3.19,0,0,0,72,109.13v13.5a5.58,5.58,0,0,0,2.74,4.64l101.88,51.47a9.43,9.43,0,0,0,6.12,0l101.88-51.47a5,5,0,0,0,3.38-4.64v-13.5a3.19,3.19,0,0,0-3.37-3.37ZM73.69,147.3c-1,0-1.69.8-1.69,2.32V250.88a3.19,3.19,0,0,0,3.38,3.38H284.63a3.19,3.19,0,0,0,3.38-3.37V149.63c0-2-1.39-2.78-2.74-2.11L183.38,199a9.43,9.43,0,0,1-6.12,0L74.74,147.51A2.41,2.41,0,0,0,73.69,147.3Z"/>
</svg>
