<svg xmlns="http://www.w3.org/2000/svg" viewBox="0 0 360 360" class="link-icon link-icon-pdf">
  <title>Link - PDF</title>
  <path class="color-base" fill="#171a1c" d="M0,0V360H360V0ZM333,333H27V27H333Z"/>
  <path class="color-highlight" fill="#da2561" d="M165.27,72a22.17,22.17,0,0,0-22.09,22.09c0,15.91,9.36,37.08,19.25,56.76-7.85,24.61-16.76,51.22-28.38,73.64H134c-23.09,9.09-43.62,16-55.23,25.31-4.64,4.1-6.68,11-6.75,16.11A22.17,22.17,0,0,0,94.09,288a23.11,23.11,0,0,0,16-6.67c8.74-10.43,29.21-48.29,29.22-48.32,22.36-8.8,46-17.87,68.8-23.16,15.53,12.87,39.12,21.71,57.76,21.71a22.09,22.09,0,1,0,0-44.18c-15.08,0-38.29,5.68-55.3,11.51A183.9,183.9,0,0,1,173,150.09c6.59-20.49,14.34-41.09,14.34-56A22.17,22.17,0,0,0,165.27,72Zm0,9.82a12.2,12.2,0,0,1,12.27,12.27c0,9.21-5.12,25.55-10.59,42.57-7.54-16.38-14-32.87-14-42.57A12.2,12.2,0,0,1,165.27,81.82Zm3.61,80.54a193.68,193.68,0,0,0,30.91,39.58c-17.79,4.58-35.37,11-52.47,17.64C155.94,201.18,162.7,181.43,168.88,162.36Zm97,34.82a12.27,12.27,0,1,1,0,24.55c-13.26,0-31.75-6.53-45.26-15.34C236.26,201.59,255,197.18,265.91,197.18Zm-141,41.57c-8,14.63-16.37,29-22.24,36.05a11.85,11.85,0,0,1-8.59,3.38,12.2,12.2,0,0,1-12.27-12.27,13.06,13.06,0,0,1,3.38-8.59C92.27,251.72,107.58,245.55,124.93,238.76Z"/>
</svg>
